<?xml version="1.0" encoding="utf-8"?>
<svg version="1.1" id="airplaneMarker" xmlns="http://www.w3.org/2000/svg" xmlns:xlink="http://www.w3.org/1999/xlink" x="0px" y="0px"
	 viewBox="0 0 200 200" style="enable-background:new 0 0 200 200;" xml:space="preserve">
<style type="text/css">
	.st0{fill:#E37631;}
	.st1{fill:#FFFFFF;}
</style>
<g>
	<circle class="st0" cx="100" cy="100" r="100"/>
</g>
<g id="g4" transform="matrix(1,0,0,-1,205.01695,1330.9831)">
	<path id="path6" class="st1" d="M-48,1282c0-4.7-4.1-11.2-12.2-19.3l-19.6-19.6l11.7-60.9
		l0.1-0.5c0-0.8-0.2-1.4-0.7-1.9l-5.2-5.2c-0.5-0.5-1.1-0.7-1.9-0.7c-1.1,0-1.9,0.5-2.4,1.5l-22.4,46.9l-20-20
		c3.7-12.9,5.5-19.8,5.5-20.6c0-0.8-0.2-1.4-0.7-1.9l-5.2-5.2c-0.5-0.5-1.1-0.7-1.9-0.7c-1,0-1.7,0.4-2.3,1.3l-12.6,22.8l-22.8,12.6
		c-0.9,0.5-1.4,1.3-1.4,2.3c0,0.8,0.2,1.4,0.7,1.9l5.2,5.3c0.5,0.5,1.1,0.7,1.9,0.7c0.8,0,7.6-1.8,20.6-5.5l20,20l-46.9,22.4
		c-1,0.4-1.5,1.2-1.5,2.4c0,0.8,0.2,1.4,0.7,1.9l5.2,5.2c0.5,0.5,1.1,0.7,1.9,0.7c0.2,0,0.4,0,0.5-0.1l60.9-11.7l19.6,19.6
		c8.1,8.1,14.5,12.2,19.3,12.2c1.7,0,3.2-0.6,4.3-1.7C-48.6,1285.2-48,1283.8-48,1282z"/>
</g>
</svg>
